<svg height="2702" width="720" xmlns="http://www.w3.org/2000/svg">
<rect height="2702" fill="#555" width="720"></rect>
<text fill="#7f7" font-family="Courier New" font-size="12" xml:space="preserve">
<tspan x="10" y="26">96 megabytes installed</tspan>
<tspan x="10" y="42"></tspan>
<tspan x="10" y="58">node_modules</tspan>
<tspan x="10" y="74">└─┬ backstopjs@2.6.11 </tspan>
<tspan x="10" y="90">  ├── casperjs@1.1.3 </tspan>
<tspan x="10" y="106">  ├─┬ chalk@1.1.3 </tspan>
<tspan x="10" y="122">  │ ├── ansi-styles@2.2.1 </tspan>
<tspan x="10" y="138">  │ ├── escape-string-regexp@1.0.5 </tspan>
<tspan x="10" y="154">  │ ├─┬ has-ansi@2.0.0 </tspan>
<tspan x="10" y="170">  │ │ └── ansi-regex@2.1.1 </tspan>
<tspan x="10" y="186">  │ ├── strip-ansi@3.0.1 </tspan>
<tspan x="10" y="202">  │ └── supports-color@2.0.0 </tspan>
<tspan x="10" y="218">  ├─┬ fs-extra@0.30.0 </tspan>
<tspan x="10" y="234">  │ ├── graceful-fs@4.1.11 </tspan>
<tspan x="10" y="250">  │ ├── jsonfile@2.4.0 </tspan>
<tspan x="10" y="266">  │ ├── klaw@1.3.1 </tspan>
<tspan x="10" y="282">  │ ├── path-is-absolute@1.0.1 </tspan>
<tspan x="10" y="298">  │ └─┬ rimraf@2.6.1 </tspan>
<tspan x="10" y="314">  │   └─┬ glob@7.1.1 </tspan>
<tspan x="10" y="330">  │     ├── fs.realpath@1.0.0 </tspan>
<tspan x="10" y="346">  │     ├─┬ inflight@1.0.6 </tspan>
<tspan x="10" y="362">  │     │ └── wrappy@1.0.2 </tspan>
<tspan x="10" y="378">  │     ├── inherits@2.0.3 </tspan>
<tspan x="10" y="394">  │     ├─┬ minimatch@3.0.3 </tspan>
<tspan x="10" y="410">  │     │ └─┬ brace-expansion@1.1.7 </tspan>
<tspan x="10" y="426">  │     │   ├── balanced-match@0.4.2 </tspan>
<tspan x="10" y="442">  │     │   └── concat-map@0.0.1 </tspan>
<tspan x="10" y="458">  │     └── once@1.4.0 </tspan>
<tspan x="10" y="474">  ├─┬ junitwriter@0.3.1 </tspan>
<tspan x="10" y="490">  │ ├─┬ dateformat@1.0.11 </tspan>
<tspan x="10" y="506">  │ │ ├── get-stdin@5.0.1 </tspan>
<tspan x="10" y="522">  │ │ └─┬ meow@3.7.0 </tspan>
<tspan x="10" y="538">  │ │   ├─┬ camelcase-keys@2.1.0 </tspan>
<tspan x="10" y="554">  │ │   │ └── camelcase@2.1.1 </tspan>
<tspan x="10" y="570">  │ │   ├── decamelize@1.2.0 </tspan>
<tspan x="10" y="586">  │ │   ├─┬ loud-rejection@1.6.0 </tspan>
<tspan x="10" y="602">  │ │   │ ├─┬ currently-unhandled@0.4.1 </tspan>
<tspan x="10" y="618">  │ │   │ │ └── array-find-index@1.0.2 </tspan>
<tspan x="10" y="634">  │ │   │ └── signal-exit@3.0.2 </tspan>
<tspan x="10" y="650">  │ │   ├── map-obj@1.0.1 </tspan>
<tspan x="10" y="666">  │ │   ├─┬ normalize-package-data@2.3.8 </tspan>
<tspan x="10" y="682">  │ │   │ ├── hosted-git-info@2.4.2 </tspan>
<tspan x="10" y="698">  │ │   │ ├─┬ is-builtin-module@1.0.0 </tspan>
<tspan x="10" y="714">  │ │   │ │ └── builtin-modules@1.1.1 </tspan>
<tspan x="10" y="730">  │ │   │ ├── semver@5.3.0 </tspan>
<tspan x="10" y="746">  │ │   │ └─┬ validate-npm-package-license@3.0.1 </tspan>
<tspan x="10" y="762">  │ │   │   ├─┬ spdx-correct@1.0.2 </tspan>
<tspan x="10" y="778">  │ │   │   │ └── spdx-license-ids@1.2.2 </tspan>
<tspan x="10" y="794">  │ │   │   └── spdx-expression-parse@1.0.4 </tspan>
<tspan x="10" y="810">  │ │   ├── object-assign@4.1.1 </tspan>
<tspan x="10" y="826">  │ │   ├─┬ read-pkg-up@1.0.1 </tspan>
<tspan x="10" y="842">  │ │   │ ├─┬ find-up@1.1.2 </tspan>
<tspan x="10" y="858">  │ │   │ │ └── path-exists@2.1.0 </tspan>
<tspan x="10" y="874">  │ │   │ └─┬ read-pkg@1.1.0 </tspan>
<tspan x="10" y="890">  │ │   │   ├─┬ load-json-file@1.1.0 </tspan>
<tspan x="10" y="906">  │ │   │   │ ├─┬ parse-json@2.2.0 </tspan>
<tspan x="10" y="922">  │ │   │   │ │ └─┬ error-ex@1.3.1 </tspan>
<tspan x="10" y="938">  │ │   │   │ │   └── is-arrayish@0.2.1 </tspan>
<tspan x="10" y="954">  │ │   │   │ ├── pify@2.3.0 </tspan>
<tspan x="10" y="970">  │ │   │   │ └─┬ strip-bom@2.0.0 </tspan>
<tspan x="10" y="986">  │ │   │   │   └── is-utf8@0.2.1 </tspan>
<tspan x="10" y="1002">  │ │   │   └── path-type@1.1.0 </tspan>
<tspan x="10" y="1018">  │ │   ├─┬ redent@1.0.0 </tspan>
<tspan x="10" y="1034">  │ │   │ ├─┬ indent-string@2.1.0 </tspan>
<tspan x="10" y="1050">  │ │   │ │ └─┬ repeating@2.0.1 </tspan>
<tspan x="10" y="1066">  │ │   │ │   └─┬ is-finite@1.0.2 </tspan>
<tspan x="10" y="1082">  │ │   │ │     └── number-is-nan@1.0.1 </tspan>
<tspan x="10" y="1098">  │ │   │ └─┬ strip-indent@1.0.1 </tspan>
<tspan x="10" y="1114">  │ │   │   └── get-stdin@4.0.1 </tspan>
<tspan x="10" y="1130">  │ │   └── trim-newlines@1.0.0 </tspan>
<tspan x="10" y="1146">  │ ├── merge@1.2.0 </tspan>
<tspan x="10" y="1162">  │ ├─┬ mkdirp@0.5.0 </tspan>
<tspan x="10" y="1178">  │ │ └── minimist@0.0.8 </tspan>
<tspan x="10" y="1194">  │ └─┬ xmlbuilder@2.6.2 </tspan>
<tspan x="10" y="1210">  │   └── lodash@3.5.0 </tspan>
<tspan x="10" y="1226">  ├── minimist@1.2.0 </tspan>
<tspan x="10" y="1242">  ├─┬ node-resemble-js@0.2.0 </tspan>
<tspan x="10" y="1258">  │ ├── jpeg-js@0.2.0 </tspan>
<tspan x="10" y="1274">  │ └── pngjs@2.2.0 </tspan>
<tspan x="10" y="1290">  ├── object-hash@1.1.5 </tspan>
<tspan x="10" y="1306">  ├── open@0.0.5 </tspan>
<tspan x="10" y="1322">  ├── os@0.1.1 </tspan>
<tspan x="10" y="1338">  ├── p-map@1.1.1 </tspan>
<tspan x="10" y="1354">  ├─┬ phantomjs-prebuilt@2.1.14 </tspan>
<tspan x="10" y="1370">  │ ├── es6-promise@4.0.5 </tspan>
<tspan x="10" y="1386">  │ ├─┬ extract-zip@1.5.0 </tspan>
<tspan x="10" y="1402">  │ │ ├─┬ concat-stream@1.5.0 </tspan>
<tspan x="10" y="1418">  │ │ │ ├─┬ readable-stream@2.0.6 </tspan>
<tspan x="10" y="1434">  │ │ │ │ ├── core-util-is@1.0.2 </tspan>
<tspan x="10" y="1450">  │ │ │ │ ├── isarray@1.0.0 </tspan>
<tspan x="10" y="1466">  │ │ │ │ ├── process-nextick-args@1.0.7 </tspan>
<tspan x="10" y="1482">  │ │ │ │ ├── string_decoder@0.10.31 </tspan>
<tspan x="10" y="1498">  │ │ │ │ └── util-deprecate@1.0.2 </tspan>
<tspan x="10" y="1514">  │ │ │ └── typedarray@0.0.6 </tspan>
<tspan x="10" y="1530">  │ │ ├── debug@0.7.4 </tspan>
<tspan x="10" y="1546">  │ │ └─┬ yauzl@2.4.1 </tspan>
<tspan x="10" y="1562">  │ │   └─┬ fd-slicer@1.0.1 </tspan>
<tspan x="10" y="1578">  │ │     └── pend@1.2.0 </tspan>
<tspan x="10" y="1594">  │ ├── fs-extra@1.0.0 </tspan>
<tspan x="10" y="1610">  │ ├─┬ hasha@2.2.0 </tspan>
<tspan x="10" y="1626">  │ │ ├── is-stream@1.1.0 </tspan>
<tspan x="10" y="1642">  │ │ └─┬ pinkie-promise@2.0.1 </tspan>
<tspan x="10" y="1658">  │ │   └── pinkie@2.0.4 </tspan>
<tspan x="10" y="1674">  │ ├── kew@0.7.0 </tspan>
<tspan x="10" y="1690">  │ ├── progress@1.1.8 </tspan>
<tspan x="10" y="1706">  │ ├─┬ request@2.79.0 </tspan>
<tspan x="10" y="1722">  │ │ ├── aws-sign2@0.6.0 </tspan>
<tspan x="10" y="1738">  │ │ ├── aws4@1.6.0 </tspan>
<tspan x="10" y="1754">  │ │ ├── caseless@0.11.0 </tspan>
<tspan x="10" y="1770">  │ │ ├─┬ combined-stream@1.0.5 </tspan>
<tspan x="10" y="1786">  │ │ │ └── delayed-stream@1.0.0 </tspan>
<tspan x="10" y="1802">  │ │ ├── extend@3.0.0 </tspan>
<tspan x="10" y="1818">  │ │ ├── forever-agent@0.6.1 </tspan>
<tspan x="10" y="1834">  │ │ ├─┬ form-data@2.1.4 </tspan>
<tspan x="10" y="1850">  │ │ │ └── asynckit@0.4.0 </tspan>
<tspan x="10" y="1866">  │ │ ├─┬ har-validator@2.0.6 </tspan>
<tspan x="10" y="1882">  │ │ │ ├─┬ commander@2.9.0 </tspan>
<tspan x="10" y="1898">  │ │ │ │ └── graceful-readlink@1.0.1 </tspan>
<tspan x="10" y="1914">  │ │ │ └─┬ is-my-json-valid@2.16.0 </tspan>
<tspan x="10" y="1930">  │ │ │   ├── generate-function@2.0.0 </tspan>
<tspan x="10" y="1946">  │ │ │   ├─┬ generate-object-property@1.2.0 </tspan>
<tspan x="10" y="1962">  │ │ │   │ └── is-property@1.0.2 </tspan>
<tspan x="10" y="1978">  │ │ │   ├── jsonpointer@4.0.1 </tspan>
<tspan x="10" y="1994">  │ │ │   └── xtend@4.0.1 </tspan>
<tspan x="10" y="2010">  │ │ ├─┬ hawk@3.1.3 </tspan>
<tspan x="10" y="2026">  │ │ │ ├── boom@2.10.1 </tspan>
<tspan x="10" y="2042">  │ │ │ ├── cryptiles@2.0.5 </tspan>
<tspan x="10" y="2058">  │ │ │ ├── hoek@2.16.3 </tspan>
<tspan x="10" y="2074">  │ │ │ └── sntp@1.0.9 </tspan>
<tspan x="10" y="2090">  │ │ ├─┬ http-signature@1.1.1 </tspan>
<tspan x="10" y="2106">  │ │ │ ├── assert-plus@0.2.0 </tspan>
<tspan x="10" y="2122">  │ │ │ ├─┬ jsprim@1.4.0 </tspan>
<tspan x="10" y="2138">  │ │ │ │ ├── assert-plus@1.0.0 </tspan>
<tspan x="10" y="2154">  │ │ │ │ ├── extsprintf@1.0.2 </tspan>
<tspan x="10" y="2170">  │ │ │ │ ├── json-schema@0.2.3 </tspan>
<tspan x="10" y="2186">  │ │ │ │ └── verror@1.3.6 </tspan>
<tspan x="10" y="2202">  │ │ │ └─┬ sshpk@1.13.0 </tspan>
<tspan x="10" y="2218">  │ │ │   ├── asn1@0.2.3 </tspan>
<tspan x="10" y="2234">  │ │ │   ├── assert-plus@1.0.0 </tspan>
<tspan x="10" y="2250">  │ │ │   ├── bcrypt-pbkdf@1.0.1 </tspan>
<tspan x="10" y="2266">  │ │ │   ├─┬ dashdash@1.14.1 </tspan>
<tspan x="10" y="2282">  │ │ │   │ └── assert-plus@1.0.0 </tspan>
<tspan x="10" y="2298">  │ │ │   ├── ecc-jsbn@0.1.1 </tspan>
<tspan x="10" y="2314">  │ │ │   ├─┬ getpass@0.1.6 </tspan>
<tspan x="10" y="2330">  │ │ │   │ └── assert-plus@1.0.0 </tspan>
<tspan x="10" y="2346">  │ │ │   ├── jodid25519@1.0.2 </tspan>
<tspan x="10" y="2362">  │ │ │   ├── jsbn@0.1.1 </tspan>
<tspan x="10" y="2378">  │ │ │   └── tweetnacl@0.14.5 </tspan>
<tspan x="10" y="2394">  │ │ ├── is-typedarray@1.0.0 </tspan>
<tspan x="10" y="2410">  │ │ ├── isstream@0.1.2 </tspan>
<tspan x="10" y="2426">  │ │ ├── json-stringify-safe@5.0.1 </tspan>
<tspan x="10" y="2442">  │ │ ├─┬ mime-types@2.1.15 </tspan>
<tspan x="10" y="2458">  │ │ │ └── mime-db@1.27.0 </tspan>
<tspan x="10" y="2474">  │ │ ├── oauth-sign@0.8.2 </tspan>
<tspan x="10" y="2490">  │ │ ├── qs@6.3.2 </tspan>
<tspan x="10" y="2506">  │ │ ├── stringstream@0.0.5 </tspan>
<tspan x="10" y="2522">  │ │ ├─┬ tough-cookie@2.3.2 </tspan>
<tspan x="10" y="2538">  │ │ │ └── punycode@1.4.1 </tspan>
<tspan x="10" y="2554">  │ │ ├── tunnel-agent@0.4.3 </tspan>
<tspan x="10" y="2570">  │ │ └── uuid@3.0.1 </tspan>
<tspan x="10" y="2586">  │ ├─┬ request-progress@2.0.1 </tspan>
<tspan x="10" y="2602">  │ │ └── throttleit@1.0.0 </tspan>
<tspan x="10" y="2618">  │ └─┬ which@1.2.14 </tspan>
<tspan x="10" y="2634">  │   └── isexe@2.0.0 </tspan>
<tspan x="10" y="2650">  └─┬ temp@0.8.3 </tspan>
<tspan x="10" y="2666">    ├── os-tmpdir@1.0.2 </tspan>
<tspan x="10" y="2682">    └── rimraf@2.2.8</tspan>
</text>
</svg>
